<svg width="30" height="21" viewBox="0 0 30 21" fill="none" xmlns="http://www.w3.org/2000/svg">
<g clip-path="url(#clip0_48_203)">
<g clip-path="url(#clip1_48_203)">
<path d="M29.3951 18.2C29.3951 19.7463 28.1414 21 26.5951 21H2.79512C1.24882 21 -0.00488281 19.7463 -0.00488281 18.2V2.8C-0.00488281 1.2537 1.24882 0 2.79512 0H26.5951C28.1414 0 29.3951 1.2537 29.3951 2.8V18.2Z" fill="#1976D2"/>
<path d="M13.4734 7.69995L11.9943 10.9781L10.5222 7.69995H8.63572V12.4082L6.53362 7.69995H4.94182L2.79492 12.5867H4.06542L4.53512 11.4961H6.93752L7.41492 12.5867H9.84042V8.95715L11.4497 12.5867H12.5438L14.1895 9.02015V12.5867H15.3949V7.69995H13.4734ZM4.98942 10.4405L5.70762 8.73245L6.45382 10.4405H4.98942ZM24.413 10.0891L26.5949 7.71255H25.043L23.6472 9.22735L22.2969 7.69995H17.4949V12.5874H22.1394L23.6038 10.9697L25.0318 12.6H26.5788L24.413 10.0891ZM21.5045 11.5612H18.6968V10.5945H21.3834V9.66835H18.6968V8.75275L21.6606 8.76115L22.8457 10.0891L21.5045 11.5612Z" fill="white"/>
</g>
</g>
<defs>
<clipPath id="clip0_48_203">
<rect width="29.39" height="21" fill="white"/>
</clipPath>
<clipPath id="clip1_48_203">
<rect width="29.4" height="21" fill="white" transform="translate(-0.00488281)"/>
</clipPath>
</defs>
</svg>
