<svg width="100" height="23" viewBox="0 0 100 23" fill="none" xmlns="http://www.w3.org/2000/svg">
<g clip-path="url(#clip0_48_12)">
<g clip-path="url(#clip1_48_12)">
<g clip-path="url(#clip2_48_12)">
<path d="M2.0955 -0.00805664L0.150714 11.3048C-0.251173 13.6433 0.151934 15.224 1.36064 16.0473C2.56935 16.8706 3.96407 17.2822 5.54508 17.2822C6.36837 17.2822 7.21453 17.1505 8.08325 16.8874C8.9904 16.591 9.74477 16.1299 10.3464 15.5042C11.5551 14.2196 12.3351 12.5565 12.686 10.5145C13.0373 8.47273 12.8294 6.80938 12.0625 5.52505C11.2953 4.24072 10.1375 3.59856 8.58973 3.59856C7.73351 3.59856 6.98066 3.76352 6.33117 4.09284C5.57161 4.48801 4.95659 4.99815 4.48701 5.62385L5.16668 1.67206C5.24596 1.21102 5.1493 0.815842 4.8767 0.486526C4.60349 0.156906 4.23636 -0.00805664 3.77532 -0.00805664H2.0955ZM14.3707 3.89464L13.0867 11.6012C12.7083 13.8738 13.0172 15.3719 14.0131 16.0964C15.0413 16.8212 16.2356 17.2164 17.5968 17.2819C19.0007 17.2819 20.3536 16.92 21.655 16.1955C22.9561 15.471 23.8011 13.9394 24.1904 11.6009L25.4745 3.89433H23.7995C23.3208 3.89433 22.8945 4.05929 22.5207 4.38861C22.1786 4.71793 21.9694 5.1131 21.8925 5.57415L20.7732 12.2928C20.6415 13.0831 20.306 13.6594 19.7672 14.0217C19.2602 14.3839 18.7195 14.5651 18.1451 14.5651C17.5706 14.5651 17.09 14.3842 16.7037 14.0217C16.3174 13.6594 16.1902 13.0831 16.3219 12.2928L17.7209 3.89433H14.3707V3.89464ZM25.9922 3.89464L28.0712 17.177C28.1691 17.8787 27.9977 18.3802 27.5574 18.6809C27.1433 19.0151 26.4725 19.3005 25.8297 19.3005H24.9134L24.3902 21.9625H24.7277C24.8823 21.9957 25.0049 22.0292 25.0951 22.0628H25.7708C27.0887 22.0628 28.2398 21.8384 28.8911 21.4374C29.5543 20.9696 30.1785 20.1842 30.7639 19.0816L38.4333 3.89464H36.1187C35.2829 3.89464 34.6953 4.29561 34.3571 5.09755L30.602 13.3173L29.705 3.89464H25.9919H25.9922ZM7.19044 6.5627C8.04666 6.5627 8.6623 6.90848 9.03766 7.59974C9.41851 8.25837 9.50663 9.18046 9.30263 10.366C9.07608 11.6833 8.65651 12.6883 8.04361 13.3798C7.43072 14.0714 6.66323 14.4169 5.74084 14.4169C4.81846 14.4169 4.21959 14.0714 3.84454 13.3798C3.49113 12.7541 3.43289 11.7494 3.67073 10.366C3.87442 9.18046 4.28301 8.24221 4.89591 7.55065C5.50301 6.89202 6.26805 6.5627 7.19014 6.5627H7.19044Z" fill="black"/>
<path d="M86.4584 -0.00799586L85.4903 5.62391C85.2027 4.99821 84.7633 4.48808 84.1727 4.0929C83.6037 3.76358 82.9073 3.59862 82.084 3.59862C80.5362 3.59862 79.158 4.24078 77.949 5.52511C76.7787 6.77651 76.0151 8.43986 75.6584 10.5145C75.2961 12.6225 75.4876 14.2855 76.2329 15.5043C76.6195 16.13 77.1988 16.591 77.9709 16.8874C78.7491 17.1506 79.5663 17.2823 80.4228 17.2823C82.0035 17.2823 83.54 16.8709 85.0317 16.0474C86.5233 15.2241 87.4704 13.6434 87.8723 11.3049L89.5287 1.67182C89.6021 1.24371 89.5024 0.86469 89.2295 0.535375C88.9627 0.173128 88.5986 -0.00830078 88.1376 -0.00830078H86.4578L86.4584 -0.00799586ZM44.6905 3.59831C42.6158 3.59831 40.9903 4.24048 39.8145 5.52481C38.6772 6.77621 37.9332 8.42309 37.5822 10.4652C37.2821 12.2105 37.3843 13.6266 37.8889 14.7133C38.4323 15.7674 39.1638 16.4919 40.0838 16.8871C41.0037 17.2823 41.9779 17.3646 43.0055 17.1341C44.066 16.9036 44.972 16.3273 45.7233 15.4052L45.5791 16.2449C45.3321 17.2991 44.9326 18.0891 44.381 18.6163C43.8624 19.1432 43.3144 19.4561 42.7378 19.5549C42.188 19.6866 41.6563 19.6207 41.1415 19.3573C40.6543 19.1265 40.3183 18.781 40.1341 18.3199H36.5281C36.7656 21.1524 38.3994 22.5684 41.4291 22.5684C43.0098 22.5684 44.5493 22.14 46.0468 21.2838C47.5385 20.4605 48.4828 18.8962 48.8792 16.591L50.077 9.6254C50.4734 7.32019 50.0697 5.73917 48.8667 4.88325C47.6635 4.02703 46.2715 3.59892 44.6908 3.59892L44.6905 3.59831ZM95.0761 3.59831C93.4954 3.59831 92.1461 3.97733 91.0277 4.73476C89.9312 5.55804 89.275 6.59539 89.0597 7.84679C88.8898 8.83473 89.0835 9.62509 89.64 10.2179C90.1309 10.8106 91.2121 11.3211 92.884 11.7495C93.1633 11.8483 93.5911 11.9471 94.1671 12.0459C95.4993 12.3422 96.1144 12.7871 96.0125 13.3799C95.9445 13.7751 95.6933 14.0879 95.2584 14.3184C94.7907 14.549 94.2607 14.6642 93.668 14.6642C92.8447 14.6642 92.2141 14.4993 91.7765 14.17C91.3722 13.8406 91.2103 13.3467 91.2905 12.688H87.9315L87.9062 12.8365C87.6567 14.2858 87.9446 15.3887 88.7697 16.1461C89.5616 16.9036 90.8962 17.282 92.7736 17.282C94.7495 17.282 96.2937 16.9197 97.406 16.1952C98.5958 15.4049 99.3154 14.2855 99.5645 12.8362C99.7344 11.8483 99.5575 11.0576 99.0337 10.4648C98.4711 9.90501 97.3868 9.41104 95.7808 8.98293C95.649 8.98293 95.5039 8.96646 95.345 8.93383C95.2191 8.9009 95.0627 8.8512 94.8767 8.78564C93.2264 8.4234 92.4465 7.97851 92.537 7.45161C92.605 7.05643 92.8041 6.76035 93.1344 6.56276C93.4978 6.36517 94.0089 6.26607 94.6675 6.26607C95.3591 6.26607 95.8771 6.41427 96.2214 6.71065C96.3306 6.84238 96.4394 6.97441 96.5486 7.10613C96.7818 7.66597 97.2112 7.94589 97.8372 7.94589H99.9613C100.122 6.62832 99.7957 5.55835 98.9821 4.73506C98.0915 3.97764 96.7898 3.59862 95.0773 3.59862L95.0761 3.59831ZM57.9769 3.59984C57.5091 3.59069 57.0161 3.62301 56.4968 3.69711C55.1179 3.86177 53.9156 4.43807 52.8899 5.42601C52.2611 6.01878 51.7385 6.76005 51.322 7.6495C50.9387 8.53866 50.6703 9.42781 50.5176 10.317C50.331 11.4037 50.2977 12.4578 50.4185 13.4787C50.545 14.4666 50.903 15.257 51.4927 15.8498C52.0495 16.4425 52.8518 16.8542 53.8989 17.0847C54.9731 17.3482 56.0794 17.332 57.217 17.0356C58.4809 16.7722 59.6015 16.0971 60.5791 15.01C61.0319 14.4831 61.4387 13.8406 61.7994 13.0832C62.1601 12.3258 62.4312 11.4202 62.6123 10.3661C62.8614 8.91706 62.7995 7.6495 62.4266 6.56276C62.0433 5.34399 61.2682 4.48746 60.1016 3.99349C59.4649 3.74651 58.7569 3.61539 57.9772 3.59984H57.9769ZM70.5839 3.59984C70.1161 3.59069 69.6231 3.62301 69.1038 3.69711C67.7252 3.86177 66.5229 4.43807 65.4969 5.42601C64.8678 6.01878 64.3455 6.76005 63.9293 7.6495C63.5457 8.53866 63.2776 9.42781 63.1249 10.317C62.938 11.4037 62.9047 12.4578 63.0258 13.4787C63.1523 14.4666 63.5106 15.257 64.1 15.8498C64.6568 16.4425 65.4587 16.8542 66.5055 17.0847C67.5801 17.3482 68.6863 17.332 69.824 17.0356C71.0879 16.7722 72.2085 16.0971 73.1858 15.01C73.6386 14.4831 74.0456 13.8406 74.4061 13.0832C74.7668 12.3258 75.0379 11.4202 75.219 10.3661C75.4681 8.91706 75.4062 7.6495 75.0333 6.56276C74.65 5.34399 73.8749 4.48746 72.7086 3.99349C72.0719 3.74651 71.3636 3.61539 70.5842 3.59984H70.5839ZM57.3015 6.48836C57.5485 6.48836 57.7881 6.52953 58.0211 6.61186C58.4867 6.77651 58.8502 7.15553 59.1106 7.74799C59.4039 8.34076 59.4484 9.22991 59.2444 10.4158C58.985 11.733 58.6068 12.688 58.1095 13.2808C57.6125 13.8736 57.0865 14.2526 56.5312 14.4172C56.0147 14.549 55.5235 14.5325 55.0576 14.3675C54.5974 14.17 54.2913 13.9397 54.1388 13.6763C53.7467 13.0835 53.6452 12.0462 53.8342 10.5643C54.0288 9.0494 54.5374 7.91296 55.3591 7.15553C55.6293 6.92501 56.0226 6.74389 56.5392 6.61216C56.8005 6.52983 57.0542 6.48867 57.3015 6.48867V6.48836ZM69.9082 6.48836C70.1551 6.48836 70.3948 6.52953 70.6278 6.61186C71.0934 6.77651 71.4566 7.15553 71.7167 7.74799C72.01 8.34076 72.0551 9.22991 71.8511 10.4158C71.5919 11.733 71.2132 12.688 70.7162 13.2808C70.2189 13.8736 69.6929 14.2526 69.1376 14.4172C68.6211 14.549 68.1296 14.5325 67.6636 14.3675C67.2035 14.17 66.8977 13.9397 66.7455 13.6763C66.3534 13.0835 66.2518 12.0462 66.4409 10.5643C66.6354 9.0494 67.1437 7.91296 67.9655 7.15553C68.2357 6.92501 68.629 6.74389 69.1456 6.61216C69.4069 6.52983 69.6609 6.48867 69.9079 6.48867L69.9082 6.48836ZM44.4862 6.51306C45.3095 6.51306 45.884 6.80944 46.2103 7.40252C46.5365 7.99529 46.6838 8.67038 46.6521 9.42781C46.6536 10.1852 46.5207 10.9594 46.2533 11.7498C45.9913 12.5072 45.6809 13.067 45.322 13.4293C44.549 14.2855 43.5239 14.5984 42.2463 14.3678C40.9741 14.1047 40.5335 12.8368 40.9241 10.5646C41.1053 9.51044 41.4641 8.5722 42.0011 7.7486C42.5378 6.92531 43.3663 6.51336 44.4862 6.51336V6.51306ZM82.4636 6.56276C83.3531 6.56276 84.0044 6.89208 84.4182 7.55071C84.7935 8.24227 84.8789 9.18052 84.6749 10.3661C84.4484 11.6836 84.0453 12.6883 83.4653 13.3799C82.8524 14.0715 82.1014 14.4172 81.2122 14.4172C80.3231 14.4172 79.6416 14.0715 79.2662 13.3799C78.8912 12.6883 78.8168 11.6836 79.0433 10.3661C79.247 9.18052 79.6529 8.25874 80.2599 7.60011C80.8728 6.90854 81.6077 6.56276 82.4636 6.56276Z" fill="black"/>
</g>
</g>
</g>
<defs>
<clipPath id="clip0_48_12">
<rect width="100" height="22.56" fill="white"/>
</clipPath>
<clipPath id="clip1_48_12">
<rect width="100" height="22.56" fill="white"/>
</clipPath>
<clipPath id="clip2_48_12">
<rect width="100" height="22.5761" fill="white" transform="translate(0 -0.00805664)"/>
</clipPath>
</defs>
</svg>
