<svg width="23" height="24" viewBox="0 0 23 24" fill="none" xmlns="http://www.w3.org/2000/svg">
<mask id="path-1-inside-1_64_1121" fill="white">
<path d="M4 5.5C4 4.11929 5.11929 3 6.5 3H17.5C18.8807 3 20 4.11929 20 5.5V16.5C20 17.8807 18.8807 19 17.5 19H6.5C5.11929 19 4 17.8807 4 16.5V5.5Z"/>
</mask>
<path d="M4 5.5C4 4.11929 5.11929 3 6.5 3H17.5C18.8807 3 20 4.11929 20 5.5V16.5C20 17.8807 18.8807 19 17.5 19H6.5C5.11929 19 4 17.8807 4 16.5V5.5Z" fill="white"/>
<path d="M6.5 3V4H17.5V3V2H6.5V3ZM20 5.5H19V16.5H20H21V5.5H20ZM17.5 19V18H6.5V19V20H17.5V19ZM4 16.5H5V5.5H4H3V16.5H4ZM6.5 19V18C5.67157 18 5 17.3284 5 16.5H4H3C3 18.433 4.567 20 6.5 20V19ZM20 16.5H19C19 17.3284 18.3284 18 17.5 18V19V20C19.433 20 21 18.433 21 16.5H20ZM17.5 3V4C18.3284 4 19 4.67157 19 5.5H20H21C21 3.567 19.433 2 17.5 2V3ZM6.5 3V2C4.567 2 3 3.567 3 5.5H4H5C5 4.67157 5.67157 4 6.5 4V3Z" fill="#767676" mask="url(#path-1-inside-1_64_1121)"/>
</svg>
