<svg width="264" height="59" viewBox="0 0 264 59" fill="none" xmlns="http://www.w3.org/2000/svg">
<mask id="path-1-inside-1_48_125" fill="white">
<path d="M11 4C11 1.79086 12.7909 0 15 0H249C251.209 0 253 1.79086 253 4V40C253 42.2091 251.209 44 249 44H15C12.7909 44 11 42.2091 11 40V4Z"/>
</mask>
<path d="M11 4C11 1.79086 12.7909 0 15 0H249C251.209 0 253 1.79086 253 4V40C253 42.2091 251.209 44 249 44H15C12.7909 44 11 42.2091 11 40V4Z" fill="white"/>
<path d="M15 0V1H249V0V-1H15V0ZM253 4H252V40H253H254V4H253ZM249 44V43H15V44V45H249V44ZM11 40H12V4H11H10V40H11ZM15 44V43C13.3431 43 12 41.6569 12 40H11H10C10 42.7614 12.2386 45 15 45V44ZM253 40H252C252 41.6569 250.657 43 249 43V44V45C251.761 45 254 42.7614 254 40H253ZM249 0V1C250.657 1 252 2.34314 252 4H253H254C254 1.23858 251.761 -1 249 -1V0ZM15 0V-1C12.2386 -1 10 1.23857 10 4H11H12C12 2.34314 13.3431 1 15 1V0Z" fill="#CED4DA" mask="url(#path-1-inside-1_48_125)"/>
<path d="M228.5 19.75L233 24.25L237.5 19.75" stroke="#343A40" stroke-width="1.5" stroke-linecap="round" stroke-linejoin="round"/>
</svg>
