<svg width="30" height="21" viewBox="0 0 30 21" fill="none" xmlns="http://www.w3.org/2000/svg">
<g clip-path="url(#clip0_48_214)">
<g clip-path="url(#clip1_48_214)">
<path d="M29.3951 18.2C29.3951 19.74 28.1351 21 26.5951 21H2.79512C1.25512 21 -0.00488281 19.74 -0.00488281 18.2V2.8C-0.00488281 1.26 1.25512 0 2.79512 0H26.5951C28.1351 0 29.3951 1.26 29.3951 2.8V18.2Z" fill="#E1E7EA"/>
<path d="M29.3952 18.1999C29.3952 19.7399 28.1352 20.9999 26.5952 20.9999H9.09521C9.09521 20.9999 25.6152 18.3399 29.3952 10.4999V18.1999ZM13.2952 10.4999C13.2952 11.6899 14.2052 12.5999 15.3952 12.5999C16.5852 12.5999 17.4952 11.6899 17.4952 10.4999C17.4952 9.3099 16.5852 8.3999 15.3952 8.3999C14.2052 8.3999 13.2952 9.3099 13.2952 10.4999Z" fill="#FF6D00"/>
<path d="M5.73521 8.40008H6.50522V12.6001H5.73521V8.40008ZM9.93522 10.5001C9.93522 11.6901 10.8452 12.6001 12.0352 12.6001C12.3852 12.6001 12.6652 12.5301 13.0152 12.3901V11.4801C12.7352 11.7601 12.4552 11.9001 12.0352 11.9001C11.2652 11.9001 10.7052 11.3401 10.7052 10.5001C10.7052 9.73008 11.2652 9.10008 12.0352 9.10008C12.3852 9.10008 12.6652 9.24008 13.0152 9.52008V8.61008C12.6652 8.47008 12.3852 8.33008 12.0352 8.33008C10.8452 8.40008 9.93522 9.38008 9.93522 10.5001ZM19.3152 11.1301L18.1952 8.40008H17.3552L19.1052 12.6001H19.5252L21.2752 8.40008H20.4352L19.3152 11.1301ZM21.6252 12.6001H23.8652V11.9001H22.3952V10.7801H23.7952V10.0801H22.3952V9.10008H23.8652V8.40008H21.6252V12.6001ZM26.9452 9.66008C26.9452 8.89008 26.4552 8.40008 25.5452 8.40008H24.3552V12.6001H25.1252V10.9201H25.1952L26.3152 12.6001H27.2952L26.0352 10.8501C26.5952 10.7101 26.9452 10.2901 26.9452 9.66008ZM25.3352 10.3601H25.1252V9.10008H25.3352C25.8252 9.10008 26.1052 9.31008 26.1052 9.73008C26.1052 10.0801 25.8952 10.3601 25.3352 10.3601ZM3.28521 8.40008H2.09521V12.6001H3.21521C4.96521 12.6001 5.38522 11.1301 5.38522 10.5001C5.45521 9.24008 4.54521 8.40008 3.28521 8.40008ZM3.07521 11.9001H2.86521V9.10008H3.14521C4.19521 9.10008 4.61522 9.80008 4.61522 10.5001C4.61522 10.7801 4.54522 11.9001 3.07521 11.9001ZM8.60522 10.0101C8.11522 9.80008 7.97521 9.73008 7.97521 9.52008C7.97521 9.24008 8.25522 9.10008 8.53522 9.10008C8.74521 9.10008 8.95522 9.17008 9.16522 9.45008L9.58522 8.89008C9.23522 8.54008 8.88522 8.40008 8.39522 8.40008C7.69522 8.40008 7.13522 8.89008 7.13522 9.59008C7.13522 10.1501 7.41522 10.4301 8.11522 10.7101C8.53522 10.8501 8.88522 10.9901 8.88522 11.3401C8.88522 11.6901 8.60522 11.9001 8.25522 11.9001C7.90522 11.9001 7.55522 11.6901 7.41522 11.3401L6.92521 11.8301C7.27522 12.3901 7.69521 12.6001 8.32521 12.6001C9.16522 12.6001 9.72521 12.0401 9.72521 11.2701C9.72521 10.6401 9.44522 10.3601 8.60522 10.0101Z" fill="black"/>
</g>
</g>
<defs>
<clipPath id="clip0_48_214">
<rect width="29.39" height="21" fill="white"/>
</clipPath>
<clipPath id="clip1_48_214">
<rect width="29.4" height="21" fill="white" transform="translate(-0.00488281)"/>
</clipPath>
</defs>
</svg>
