<svg width="30" height="21" viewBox="0 0 30 21" fill="none" xmlns="http://www.w3.org/2000/svg">
<g clip-path="url(#clip0_48_189)">
<g clip-path="url(#clip1_48_189)">
<path d="M29.3951 18.2C29.3951 19.7463 28.1414 21 26.5951 21H2.79512C1.24882 21 -0.00488281 19.7463 -0.00488281 18.2V2.8C-0.00488281 1.2537 1.24882 0 2.79512 0H26.5951C28.1414 0 29.3951 1.2537 29.3951 2.8V18.2Z" fill="#3F51B5"/>
<path d="M18.895 3.5C15.029 3.5 11.895 6.63401 11.895 10.5C11.895 14.366 15.029 17.5 18.895 17.5C22.761 17.5 25.895 14.366 25.895 10.5C25.895 6.63401 22.761 3.5 18.895 3.5Z" fill="#FFC107"/>
<path d="M13.3047 14.7C12.9799 14.2681 12.7006 13.8012 12.4815 13.3H16.209C16.4036 12.8548 16.5562 12.3872 16.6549 11.9H12.0363C11.9439 11.4478 11.8949 10.9802 11.8949 10.5H16.7949C16.7949 10.0198 16.7459 9.5522 16.6542 9.1H12.0356C12.135 8.6128 12.2869 8.1452 12.4815 7.7H16.209C15.9899 7.1988 15.7113 6.7319 15.3858 6.3H13.3047C13.6106 5.894 13.9557 5.5146 14.3414 5.1835C13.1178 4.1363 11.5316 3.5 9.79492 3.5C5.92882 3.5 2.79492 6.6339 2.79492 10.5C2.79492 14.3661 5.92882 17.5 9.79492 17.5C12.0832 17.5 14.1083 16.3975 15.3851 14.7H13.3047Z" fill="#FF3D00"/>
</g>
</g>
<defs>
<clipPath id="clip0_48_189">
<rect width="29.39" height="21" fill="white"/>
</clipPath>
<clipPath id="clip1_48_189">
<rect width="29.4" height="21" fill="white" transform="translate(-0.00488281)"/>
</clipPath>
</defs>
</svg>
