<svg width="30" height="21" viewBox="0 0 30 21" fill="none" xmlns="http://www.w3.org/2000/svg">
<g clip-path="url(#clip0_48_175)">
<g clip-path="url(#clip1_48_175)">
<path d="M29.3951 18.2C29.3951 19.7463 28.1414 21 26.5951 21H2.79512C1.24882 21 -0.00488281 19.7463 -0.00488281 18.2V2.8C-0.00488281 1.2537 1.24882 0 2.79512 0H26.5951C28.1414 0 29.3951 1.2537 29.3951 2.8V18.2Z" fill="#1565C0"/>
<path d="M8.5255 6.99997L6.6873 12.4824C6.6873 12.4824 6.2204 10.1633 6.1742 9.87207C5.1277 7.48437 3.5835 7.61737 3.5835 7.61737L5.4035 14.7V14.6986H7.6162L10.6759 6.99997H8.5255ZM10.2776 14.7H12.2873L13.5025 6.99997H11.4676L10.2776 14.7ZM24.5009 6.99997H22.3862L19.0892 14.7H21.0856L21.4972 13.6003H24.0144L24.2286 14.7H26.0577L24.5009 6.99997ZM22.0544 12.1296L23.1485 9.21967L23.7211 12.1296H22.0544ZM16.3536 9.24417C16.3536 8.81997 16.7022 8.50427 17.7018 8.50427C18.3514 8.50427 19.0955 8.97607 19.0955 8.97607L19.4217 7.35977C19.4217 7.35977 18.4711 6.99927 17.538 6.99927C15.4247 6.99927 14.3348 8.01007 14.3348 9.28967C14.3348 11.6039 17.1201 11.2868 17.1201 12.4754C17.1201 12.6791 16.9584 13.1502 15.7985 13.1502C14.6351 13.1502 13.8672 12.7239 13.8672 12.7239L13.5207 14.2751C13.5207 14.2751 14.2648 14.6993 15.7026 14.6993C17.1439 14.6993 19.1431 13.6213 19.1431 12.0729C19.1431 10.2102 16.3536 10.0758 16.3536 9.24417Z" fill="white"/>
<path d="M6.44341 11.1616L5.76721 7.83798C5.76721 7.83798 5.46131 7.11768 4.66611 7.11768C3.87091 7.11768 1.55811 7.11768 1.55811 7.11768C1.55811 7.11768 5.52081 8.28808 6.44341 11.1616Z" fill="#FFC107"/>
</g>
</g>
<defs>
<clipPath id="clip0_48_175">
<rect width="29.39" height="21" fill="white"/>
</clipPath>
<clipPath id="clip1_48_175">
<rect width="29.4" height="21" fill="white" transform="translate(-0.00488281)"/>
</clipPath>
</defs>
</svg>
